<?xml version="1.0" encoding="UTF-8"?>
<svg version="1.1" xmlns="http://www.w3.org/2000/svg" width="500" height="500">
<path d="M0 0 C165 0 330 0 500 0 C500 165 500 330 500 500 C335 500 170 500 0 500 C0 335 0 170 0 0 Z " fill="#1E1D23" transform="translate(0,0)"/>
<path d="M0 0 C0.90234375 0.680625 1.8046875 1.36125 2.734375 2.0625 C19.81172801 15.40102425 34.74549837 31.87851188 45 51 C45.96873047 52.69382813 45.96873047 52.69382813 46.95703125 54.421875 C57.85061572 73.96152547 64.26102036 94.82868058 67 117 C67.11214844 117.87785156 67.22429687 118.75570312 67.33984375 119.66015625 C69.61796522 141.3491209 68.38132439 163.13134456 62 184 C61.8045459 184.67047363 61.6090918 185.34094727 61.40771484 186.03173828 C55.72568722 205.41562122 46.96125383 223.71540141 35 240 C34.38511719 240.84433594 33.77023437 241.68867188 33.13671875 242.55859375 C28.77470354 248.34453117 23.95128695 253.71552785 19 259 C18.10410156 259.96164062 17.20820313 260.92328125 16.28515625 261.9140625 C-6.38747288 285.71529847 -37.59277376 300.81593451 -69.25 308.25 C-70.35158447 308.50869873 -71.45316895 308.76739746 -72.58813477 309.03393555 C-94.42301269 313.9649226 -118.15157007 313.80450102 -140 309 C-141.02407959 308.7831958 -141.02407959 308.7831958 -142.06884766 308.56201172 C-168.98880505 302.75625067 -195.11168186 291.1342077 -216 273 C-216.7940625 272.31550781 -217.588125 271.63101562 -218.40625 270.92578125 C-220.97891914 268.65841303 -223.49640128 266.34339821 -226 264 C-226.94875 263.11699219 -227.8975 262.23398437 -228.875 261.32421875 C-253.13517175 238.22516324 -268.66201128 207.06269298 -276.25 174.75 C-276.50869873 173.64841553 -276.76739746 172.54683105 -277.03393555 171.41186523 C-285.55500538 133.67976055 -279.40903194 90.80947616 -260.23852539 57.17431641 C-259.07720115 55.13553192 -257.96188035 53.07884264 -256.859375 51.0078125 C-252.31362675 42.5836796 -247.40828364 35.17010757 -241 28 C-240.30390625 27.195625 -239.6078125 26.39125 -238.890625 25.5625 C-236.63775202 22.99718479 -234.33397362 20.49177372 -232 18 C-231.54173828 17.50773926 -231.08347656 17.01547852 -230.61132812 16.50830078 C-219.64575425 4.82552304 -206.12726326 -8.1171754 -191 -14 C-190.34 -14.66 -189.68 -15.32 -189 -16 C-187.64665856 -16.61277907 -186.26621187 -17.16638505 -184.875 -17.6875 C-181.00008684 -19.17742357 -177.217642 -20.79825767 -173.44335938 -22.52734375 C-164.50363931 -26.58373085 -155.53614851 -29.67303558 -146 -32 C-145.19916992 -32.19754883 -144.39833984 -32.39509766 -143.57324219 -32.59863281 C-94.15606056 -44.30623187 -39.81748163 -31.03721645 0 0 Z " fill="#FCFCFC" transform="translate(356,112)"/>
<path d="M0 0 C3.80087085 1.33634859 6.52759659 2.99859584 9.625 5.5625 C10.49253906 6.27792969 11.36007812 6.99335938 12.25390625 7.73046875 C13.16011719 8.47941406 14.06632813 9.22835937 15 10 C15.91652344 10.71800781 16.83304688 11.43601563 17.77734375 12.17578125 C24.22715001 17.26868577 29.7595452 22.67310945 35 29 C35.80179688 29.96550781 36.60359375 30.93101562 37.4296875 31.92578125 C57.99583242 57.33480481 68.45528294 87.14326926 68.26074219 119.73632812 C68.2499005 121.89480981 68.26078077 124.05247875 68.2734375 126.2109375 C68.28056212 133.42079693 67.96002333 140.03828751 66 147 C65.80857422 147.70165283 65.61714844 148.40330566 65.41992188 149.1262207 C58.9059037 172.27258188 41.98085144 193.46512589 21.17578125 205.2265625 C12.16516361 210.05808525 2.86780703 213.39599537 -7 216 C-8.37671875 216.36931641 -8.37671875 216.36931641 -9.78125 216.74609375 C-33.18091891 221.98213077 -57.68490573 215.88384516 -77.875 203.6875 C-89.58628331 195.63825884 -98.86434722 186.62333045 -107 175 C-107.65742188 174.06929687 -108.31484375 173.13859375 -108.9921875 172.1796875 C-121.92987599 151.99689345 -125.53912144 124.53674149 -121.28125 101.11328125 C-120.37800732 97.62778429 -119.31402869 94.34990867 -118 91 C-117.4740625 89.48599609 -117.4740625 89.48599609 -116.9375 87.94140625 C-107.65999334 63.16917493 -88.10429759 45.06469829 -64.87109375 33.43359375 C-57.48035275 30.13679184 -49.93290545 28.46575531 -42 27 C-41.21109375 26.814375 -40.4221875 26.62875 -39.609375 26.4375 C-16.46281225 22.55663918 8.89370886 30.01381587 28 43 C31.53635019 45.81810054 34.76542347 48.84628788 38 52 C39.03125 52.804375 40.0625 53.60875 41.125 54.4375 C46.52372044 59.249403 50.6885962 65.22031627 55 71 C54.7834375 70.38511719 54.566875 69.77023438 54.34375 69.13671875 C53.92609375 67.92435547 53.92609375 67.92435547 53.5 66.6875 C53.08234375 65.48673828 53.08234375 65.48673828 52.65625 64.26171875 C52 62 52 62 52 59 C50.83210938 58.67128906 50.83210938 58.67128906 49.640625 58.3359375 C47 57 47 57 45.671875 54.5390625 C45.36765625 53.57742187 45.0634375 52.61578125 44.75 51.625 C44.43546875 50.66851562 44.1209375 49.71203125 43.796875 48.7265625 C43.14398888 46.49266785 42.53653704 44.26418631 42 42 C42 43.98 42 45.96 42 48 C41.34 48 40.68 48 40 48 C39.566875 46.39125 39.566875 46.39125 39.125 44.75 C38.26157786 41.87192619 37.4313694 39.59435704 36 37 C35.5978125 36.01 35.5978125 36.01 35.1875 35 C34.02900741 32.77267659 34.02900741 32.77267659 31.4375 31 C28.91933482 28.93381319 28.3380332 28.15497657 28 25 C27.34 25 26.68 25 26 25 C26 24.34 26 23.68 26 23 C25.34 23 24.68 23 24 23 C21 19.53846154 21 19.53846154 21 17 C19.11683841 15.89163577 19.11683841 15.89163577 17 15 C16.34 15.33 15.68 15.66 15 16 C12.89505173 14.18209013 12.04589 13.15679083 11.25 10.4375 C10.13894958 7.60926157 10.13894958 7.60926157 6.5 6.625 C3.16312812 5.66948539 3.16312812 5.66948539 1 7 C0.505 3.535 0.505 3.535 0 0 Z " fill="#232329" transform="translate(325,128)"/>
<path d="M0 0 C15.51453952 -0.42286116 30.67110558 -0.12450002 45.45849609 5.07373047 C46.53744141 5.40630859 47.61638672 5.73888672 48.72802734 6.08154297 C55.99419104 8.37274784 62.92846092 11.03170399 69.83349609 14.26123047 C70.57704346 14.60621582 71.32059082 14.95120117 72.08666992 15.30664062 C77.33081717 17.81837262 77.33081717 17.81837262 78.45849609 20.07373047 C77.77529297 20.00154297 77.09208984 19.92935547 76.38818359 19.85498047 C59.86069088 18.33326758 43.64665512 18.12718154 27.45849609 22.07373047 C26.50201172 22.29029297 25.54552734 22.50685547 24.56005859 22.72998047 C3.05202128 28.02814802 -15.53632293 38.93095227 -31.54150391 54.07373047 C-32.36521484 54.83298828 -33.18892578 55.59224609 -34.03759766 56.37451172 C-44.84804257 66.67900757 -52.43175195 78.52744395 -58.54150391 92.07373047 C-58.92951172 92.92322266 -59.31751953 93.77271484 -59.71728516 94.64794922 C-73.37822193 126.55863165 -72.35169918 162.30662618 -59.64648438 194.32958984 C-53.48431308 208.60675618 -44.24104164 220.88338826 -33.54150391 232.07373047 C-32.93177734 232.74662109 -32.32205078 233.41951172 -31.69384766 234.11279297 C-14.50006086 252.43823027 12.61016569 265.29464088 37.45849609 268.07373047 C38.28349609 268.18201172 39.10849609 268.29029297 39.95849609 268.40185547 C52.71565946 269.8446299 65.71196903 269.31513137 78.45849609 268.07373047 C75.79152317 271.27409798 72.35864545 272.76227324 68.64599609 274.44873047 C67.97656982 274.75399658 67.30714355 275.0592627 66.61743164 275.3737793 C36.83740372 288.73989476 3.17780293 292.23340723 -28.54150391 284.07373047 C-29.29560547 283.88069336 -30.04970703 283.68765625 -30.82666016 283.48876953 C-49.11494537 278.57802628 -67.09990609 269.30613202 -81.54150391 257.07373047 C-82.70988652 256.12732037 -83.87921357 255.18207542 -85.04931641 254.23779297 C-92.49759988 248.13996259 -98.70171793 241.76385156 -104.54150391 234.07373047 C-105.32783203 233.13658203 -106.11416016 232.19943359 -106.92431641 231.23388672 C-118.68763285 216.90771606 -126.79634842 199.9430999 -131.54150391 182.07373047 C-131.78126953 181.19442871 -132.02103516 180.31512695 -132.26806641 179.40917969 C-138.0861441 157.39617652 -138.852851 134.28579475 -133.54150391 112.07373047 C-133.39116699 111.40470703 -133.24083008 110.73568359 -133.0859375 110.04638672 C-127.80523174 87.19074643 -115.67089965 66.72469217 -100.54150391 49.07373047 C-99.47802734 47.80722656 -99.47802734 47.80722656 -98.39306641 46.51513672 C-76.42577584 21.09810918 -42.09057826 3.7260824 -8.72900391 0.26123047 C-5.8195854 0.12387595 -2.91120257 0.08445564 0 0 Z " fill="#232228" transform="translate(242.54150390625,105.92626953125)"/>
<path d="M0 0 C0.96333252 0.00338379 1.92666504 0.00676758 2.91918945 0.01025391 C23.9294396 0.16129307 23.9294396 0.16129307 28.375 3.125 C29.0625 6.25 29.0625 6.25 29.375 9.125 C29.98988281 9.28355469 30.60476563 9.44210938 31.23828125 9.60546875 C37.89339465 11.52664184 37.89339465 11.52664184 40.4375 14.6875 C41.375 17.125 41.375 17.125 41.375 19.125 C41.931875 18.856875 42.48875 18.58875 43.0625 18.3125 C45.375 18.125 45.375 18.125 48 20.3125 C49.92674301 22.59416935 51.26112192 24.39093561 52.375 27.125 C53.035 27.125 53.695 27.125 54.375 27.125 C54.375 27.785 54.375 28.445 54.375 29.125 C55.035 29.125 55.695 29.125 56.375 29.125 C56.99375 30.2078125 56.99375 30.2078125 57.625 31.3125 C59.21977333 33.87552857 60.18221067 34.87834058 62.5 36.625 C65.6092454 39.32869165 65.95031111 40.19662781 66.375 44.125 C67.035 44.785 67.695 45.445 68.375 46.125 C68.5 49.25 68.5 49.25 68.375 52.125 C69.035 52.125 69.695 52.125 70.375 52.125 C70.045 49.485 69.715 46.845 69.375 44.125 C73.05691725 48.30899688 74.17113578 52.96403928 74.6875 58.4375 C75.0278125 59.7678125 75.0278125 59.7678125 75.375 61.125 C76.16519531 61.38667969 76.95539063 61.64835937 77.76953125 61.91796875 C80.375 63.125 80.375 63.125 81.7734375 65.875 C82.09570312 66.9475 82.41796875 68.02 82.75 69.125 C83.08773437 70.1975 83.42546875 71.27 83.7734375 72.375 C84.375 75.125 84.375 75.125 83.375 77.125 C82.87871094 76.42375 82.38242187 75.7225 81.87109375 75 C65.91066168 52.70990892 44.65118169 37.26935448 17.375 32.125 C-8.64505315 28.2741391 -33.22885695 33.8817033 -54.609375 49.2734375 C-57.0061123 51.16903882 -59.32529329 53.11324303 -61.625 55.125 C-62.16560059 55.56279785 -62.70620117 56.0005957 -63.26318359 56.45166016 C-67.53271437 59.95715741 -70.90753222 63.64266113 -74.125 68.125 C-74.59494385 68.77436523 -75.0648877 69.42373047 -75.54907227 70.09277344 C-87.32331243 86.7717691 -93.02780747 104.41206504 -93 124.6875 C-92.99945618 125.35451935 -92.99891235 126.0215387 -92.99835205 126.70877075 C-92.95934152 137.10726252 -92.19594962 146.31043351 -88.625 156.125 C-88.41069336 156.7535791 -88.19638672 157.3821582 -87.97558594 158.02978516 C-84.80975202 167.27153176 -80.49629029 175.27862492 -74.625 183.125 C-73.92375 184.07246094 -73.2225 185.01992188 -72.5 185.99609375 C-58.30492299 204.2722554 -35.78796727 217.35696263 -12.79296875 220.69140625 C13.06243487 223.72119115 39.47133567 217.29485689 60.1796875 201.26171875 C71.99522748 191.67972835 80.35610401 180.51913777 87.375 167.125 C87.88289062 166.16335938 88.39078125 165.20171875 88.9140625 164.2109375 C91.78273768 158.38970774 93.15532468 153.00335522 93.91796875 146.55859375 C94.375 144.125 94.375 144.125 96.375 142.125 C94.70395402 170.53278162 81.4493775 197.54933396 63.375 219.125 C62.88918457 219.70717285 62.40336914 220.2893457 61.90283203 220.88916016 C55.08354563 228.93423208 47.58026275 235.67504784 39.0625 241.88037109 C37.45216961 243.06808295 35.8810163 244.30837229 34.3125 245.55078125 C26.69375826 251.25470625 20.76502206 252.25176042 11.375 252.125 C10.00638965 252.15509025 8.63788587 252.19040215 7.26953125 252.23046875 C-28.39960476 253.06819656 -61.23442211 240.6717703 -87.07788086 216.07202148 C-97.29698712 206.06670987 -105.20726737 194.92336854 -111.625 182.125 C-112.09232544 181.25693726 -112.09232544 181.25693726 -112.5690918 180.37133789 C-115.30304713 175.1792238 -117.11040699 169.95591553 -118.6875 164.3125 C-118.94354004 163.39815186 -119.19958008 162.48380371 -119.46337891 161.54174805 C-127.31505706 132.56650673 -127.39710395 98.23109366 -112.625 71.125 C-111.79548828 69.54912109 -111.79548828 69.54912109 -110.94921875 67.94140625 C-94.73671727 37.8802906 -68.17604313 15.50574268 -35.625 5.125 C-23.75334802 1.8331883 -12.33832277 -0.06222265 0 0 Z " fill="#AEADBD" transform="translate(296.625,123.875)"/>
<path d="M0 0 C3.80087085 1.33634859 6.52759659 2.99859584 9.625 5.5625 C10.92630859 6.63564453 10.92630859 6.63564453 12.25390625 7.73046875 C13.61322266 8.85388672 13.61322266 8.85388672 15 10 C15.91652344 10.71800781 16.83304687 11.43601563 17.77734375 12.17578125 C24.22715001 17.26868577 29.7595452 22.67310945 35 29 C35.80179687 29.96550781 36.60359375 30.93101562 37.4296875 31.92578125 C57.99583242 57.33480481 68.45528294 87.14326926 68.26074219 119.73632812 C68.2499005 121.89480981 68.26078077 124.05247875 68.2734375 126.2109375 C68.28056212 133.42079693 67.96002333 140.03828751 66 147 C65.80857422 147.70165283 65.61714844 148.40330566 65.41992188 149.1262207 C60.6976208 165.90604589 50.12449437 180.79426949 38 193 C37.41734375 193.59296875 36.8346875 194.1859375 36.234375 194.796875 C32.7719317 196.66126755 29.26823389 196.39971461 25.4375 196.3125 C24.62901611 196.30049561 23.82053223 196.28849121 22.98754883 196.27612305 C2.28990434 195.78958244 -15.16915104 187.26450932 -29.59521484 172.53417969 C-36.41736055 165.08364726 -41.27045761 156.3463231 -45 147 C-45.34933594 146.15824219 -45.69867188 145.31648437 -46.05859375 144.44921875 C-52.29502095 128.22415711 -49.87283583 107.8799728 -43.484375 92.171875 C-41.11891393 87.1172582 -38.20388227 82.55882808 -35 78 C-34.43539063 77.18789062 -33.87078125 76.37578125 -33.2890625 75.5390625 C-30.36814359 71.47827279 -30.36814359 71.47827279 -29 70 C-28.34 70 -27.68 70 -27 70 C-27 69.34 -27 68.68 -27 68 C-14.25677112 56.14763514 -0.08007211 50.41998629 16.89599609 47.39160156 C18.81336229 47.0347374 20.71499358 46.59581773 22.61328125 46.1484375 C27.79426059 45.21772265 30.67118033 45.14564232 35.18359375 48.046875 C41.65522808 53.456749 47.0059229 60.24897047 52 67 C52.56589844 67.75410156 53.13179688 68.50820312 53.71484375 69.28515625 C54.13894531 69.85105469 54.56304687 70.41695313 55 71 C54.7834375 70.38511719 54.566875 69.77023438 54.34375 69.13671875 C54.0653125 68.32847656 53.786875 67.52023438 53.5 66.6875 C53.2215625 65.88699219 52.943125 65.08648437 52.65625 64.26171875 C52 62 52 62 52 59 C50.83210938 58.67128906 50.83210938 58.67128906 49.640625 58.3359375 C47 57 47 57 45.671875 54.5390625 C45.36765625 53.57742187 45.0634375 52.61578125 44.75 51.625 C44.27820313 50.19027344 44.27820313 50.19027344 43.796875 48.7265625 C43.14398888 46.49266785 42.53653704 44.26418631 42 42 C42 43.98 42 45.96 42 48 C41.34 48 40.68 48 40 48 C39.71125 46.9275 39.4225 45.855 39.125 44.75 C38.26157786 41.87192619 37.4313694 39.59435704 36 37 C35.5978125 36.01 35.5978125 36.01 35.1875 35 C34.02900741 32.77267659 34.02900741 32.77267659 31.4375 31 C28.91933482 28.93381319 28.3380332 28.15497657 28 25 C27.34 25 26.68 25 26 25 C26 24.34 26 23.68 26 23 C25.34 23 24.68 23 24 23 C21 19.53846154 21 19.53846154 21 17 C19.11683841 15.89163577 19.11683841 15.89163577 17 15 C16.34 15.33 15.68 15.66 15 16 C12.89505173 14.18209013 12.04589 13.15679083 11.25 10.4375 C10.13894958 7.60926157 10.13894958 7.60926157 6.5 6.625 C3.16312812 5.66948539 3.16312812 5.66948539 1 7 C0.505 3.535 0.505 3.535 0 0 Z " fill="#7B7A8C" transform="translate(325,128)"/>
<path d="M0 0 C4.9958939 3.4536009 9.11630349 7.76290883 12.75 12.61328125 C13.39086548 13.33813721 13.39086548 13.33813721 14.04467773 14.07763672 C18.85866335 20.30002854 18.54398549 27.25591432 18.45678711 34.76660156 C18.43758771 36.97817805 18.47697705 39.18342697 18.52148438 41.39453125 C18.57326428 50.18814405 17.36397084 56.5521192 11.75 63.61328125 C11.19570313 64.35151123 10.64140625 65.08974121 10.0703125 65.8503418 C3.01720667 74.97392704 -6.952768 80.05601869 -18.25 81.61328125 C-32.3641303 82.62845071 -43.58621209 79.70086227 -54.5 70.42578125 C-64.00228256 61.4008504 -68.12996792 50.98630306 -68.70361328 38.03125 C-68.94757905 25.64292502 -65.61895243 16.3798992 -57.48046875 6.8671875 C-53.77061228 3.1183483 -49.79765397 0.26315072 -45.25 -2.38671875 C-44.55003906 -2.82113281 -43.85007812 -3.25554687 -43.12890625 -3.703125 C-29.89383536 -10.47400797 -12.06711073 -7.43719498 0 0 Z " fill="#222127" transform="translate(375.25,212.38671875)"/>
<path d="M0 0 C3.80087085 1.33634859 6.52759659 2.99859584 9.625 5.5625 C10.49253906 6.27792969 11.36007812 6.99335938 12.25390625 7.73046875 C13.61322266 8.85388672 13.61322266 8.85388672 15 10 C15.91652344 10.71800781 16.83304687 11.43601563 17.77734375 12.17578125 C24.22715001 17.26868577 29.7595452 22.67310945 35 29 C35.80179687 29.96550781 36.60359375 30.93101562 37.4296875 31.92578125 C50.71377468 48.33798128 66.6164717 73.15378425 66 95 C62.96374786 93.48187393 62.77433863 91.1993892 61.625 88.0625 C60.0912326 83.93486126 58.54353467 79.82507505 56.875 75.75 C52 63.60213415 52 63.60213415 52 59 C50.83210938 58.67128906 50.83210938 58.67128906 49.640625 58.3359375 C47 57 47 57 45.671875 54.5390625 C45.36765625 53.57742187 45.0634375 52.61578125 44.75 51.625 C44.27820313 50.19027344 44.27820313 50.19027344 43.796875 48.7265625 C43.14398888 46.49266785 42.53653704 44.26418631 42 42 C42 43.98 42 45.96 42 48 C41.34 48 40.68 48 40 48 C39.71125 46.9275 39.4225 45.855 39.125 44.75 C38.26157786 41.87192619 37.4313694 39.59435704 36 37 C35.731875 36.34 35.46375 35.68 35.1875 35 C34.02900741 32.77267659 34.02900741 32.77267659 31.4375 31 C28.91933482 28.93381319 28.3380332 28.15497657 28 25 C27.34 25 26.68 25 26 25 C26 24.34 26 23.68 26 23 C25.34 23 24.68 23 24 23 C21 19.53846154 21 19.53846154 21 17 C19.11683841 15.89163577 19.11683841 15.89163577 17 15 C16.01 15.495 16.01 15.495 15 16 C12.89505173 14.18209013 12.04589 13.15679083 11.25 10.4375 C10.13894958 7.60926157 10.13894958 7.60926157 6.5 6.625 C3.16312812 5.66948539 3.16312812 5.66948539 1 7 C0.67 4.69 0.34 2.38 0 0 Z " fill="#8D8D95" transform="translate(325,128)"/>
<path d="M0 0 C4.35541739 12.37059524 -6.28504456 34.38433715 -11.48046875 45.44921875 C-17.12649237 56.89052749 -23.81185536 67.22568415 -32 77 C-32.48581543 77.58217285 -32.97163086 78.1643457 -33.47216797 78.76416016 C-40.75757833 87.35914311 -48.87931831 94.4141238 -58 101 C-58.86117432 101.62624268 -58.86117432 101.62624268 -59.73974609 102.26513672 C-66.70597294 107.28137718 -66.70597294 107.28137718 -70 109 C-70.99 108.67 -71.98 108.34 -73 108 C-72.67 106.68 -72.34 105.36 -72 104 C-70.9790625 104.185625 -70.9790625 104.185625 -69.9375 104.375 C-65.99952167 103.87227936 -64.35524659 101.99881713 -61.55078125 99.3125 C-60 98 -60 98 -58 98 C-57.773125 97.195625 -57.54625 96.39125 -57.3125 95.5625 C-56.6628125 94.2940625 -56.6628125 94.2940625 -56 93 C-55.2575 92.87625 -54.515 92.7525 -53.75 92.625 C-49.43087799 91.64338136 -47.67898457 88.35049785 -45 85 C-40.47368421 80.15789474 -40.47368421 80.15789474 -37 79 C-37 78.01 -37 77.02 -37 76 C-36.01 76 -35.02 76 -34 76 C-33.7525 75.05125 -33.505 74.1025 -33.25 73.125 C-31.79055367 69.47638418 -31.27069167 69.63534584 -28 68 C-27.30899447 66.00827818 -26.64097297 64.00838196 -26 62 C-25.01 61.67 -24.02 61.34 -23 61 C-21.81608777 58.62374655 -21.81608777 58.62374655 -21 56 C-20.67 55.01 -20.34 54.02 -20 53 C-19.34 53 -18.68 53 -18 53 C-17.34 50.69 -16.68 48.38 -16 46 C-15.34 46 -14.68 46 -14 46 C-13.979375 44.783125 -13.95875 43.56625 -13.9375 42.3125 C-13.33776334 36.48121436 -10.55201409 32.07807282 -7.59375 27.11328125 C-5.97245113 23.94618516 -5.45179335 21.50020951 -5 18 C-4.55740628 16.5508217 -4.08011358 15.11160783 -3.5625 13.6875 C-2.00221494 9.19020777 -0.93696429 4.66277522 0 0 Z " fill="#9F9FA9" transform="translate(392,266)"/>
<path d="M0 0 C11.86643404 8.00984298 18.09415047 25.1205049 22.65234375 38.09765625 C23.06321547 40.34590939 22.69627063 41.84396197 22 44 C17.90542552 36.90273757 15.09016389 31.25409803 14 23 C13.01 22.67 12.02 22.34 11 22 C11 21.34 11 20.68 11 20 C10.34 20 9.68 20 9 20 C7.90341064 16.71023192 8.20046862 15.28696233 9 12 C8.34 12 7.68 12 7 12 C4.70351351 9.4385343 4 8.52032428 4 5 C3.34 5 2.68 5 2 5 C1.34 3.35 0.68 1.7 0 0 Z " fill="#706F7C" transform="translate(369,187)"/>
<path d="M0 0 C3.90376931 1.36145691 6.69142685 3.12584066 9.875 5.75 C10.73609375 6.45640625 11.5971875 7.1628125 12.484375 7.890625 C15.67875959 10.56914624 18.85419413 13.26451664 22 16 C21.01 16.33 20.02 16.66 19 17 C18.34 16.34 17.68 15.68 17 15 C16.01 15.495 16.01 15.495 15 16 C12.89505173 14.18209013 12.04589 13.15679083 11.25 10.4375 C10.13894958 7.60926157 10.13894958 7.60926157 6.5 6.625 C3.16312812 5.66948539 3.16312812 5.66948539 1 7 C0.67 4.69 0.34 2.38 0 0 Z " fill="#87878F" transform="translate(325,128)"/>
<path d="M0 0 C-1.19753906 0.02578125 -2.39507812 0.0515625 -3.62890625 0.078125 C-14.36146362 0.41365584 -23.75219046 1.78238208 -34 5 C-36.3301895 5.67819808 -38.66480435 6.33915149 -41 7 C-41 6.34 -41 5.68 -41 5 C-32.41785718 1.96555814 -24.06980893 -0.83519048 -15 -2 C-13.93136719 -2.14566406 -12.86273438 -2.29132813 -11.76171875 -2.44140625 C-3.0855004 -3.42852091 -3.0855004 -3.42852091 0 0 Z " fill="#92919D" transform="translate(359,177)"/>
<path d="M0 0 C0.33 0 0.66 0 1 0 C0.72962375 7.35423405 -0.26918654 12.62151248 -4 19 C-4.66 19 -5.32 19 -6 19 C-6.625 16.125 -6.625 16.125 -7 13 C-6.34 12.34 -5.68 11.68 -5 11 C-5 10.01 -5 9.02 -5 8 C-3.94140625 5.95703125 -3.94140625 5.95703125 -2.5625 3.8125 C-2.11003906 3.09707031 -1.65757812 2.38164062 -1.19140625 1.64453125 C-0.79824219 1.10183594 -0.40507812 0.55914062 0 0 Z " fill="#7B7A88" transform="translate(390,269)"/>
<path d="M0 0 C0.99 0.33 1.98 0.66 3 1 C3.061875 1.94875 3.12375 2.8975 3.1875 3.875 C3.455625 4.90625 3.72375 5.9375 4 7 C4.79277344 7.27070313 5.58554687 7.54140625 6.40234375 7.8203125 C9 9 9 9 10.3984375 11.75 C10.72070312 12.8225 11.04296875 13.895 11.375 15 C11.71273438 16.0725 12.05046875 17.145 12.3984375 18.25 C13 21 13 21 12 23 C7.23719677 16.60781671 7.23719677 16.60781671 6 13.4375 C5.03698418 10.71579598 5.03698418 10.71579598 2.375 8 C0 5 0 5 -0.3125 2.125 C-0.209375 1.42375 -0.10625 0.7225 0 0 Z " fill="#9B9BA8" transform="translate(368,178)"/>
<path d="M0 0 C3.5133202 9.6977263 -3.66864272 24.71696884 -7 34 C-7.66 34 -8.32 34 -9 34 C-8.39919595 29.79437164 -7.41719116 26.00148094 -6 22 C-3.53333312 14.75416605 -1.59445668 7.48037657 0 0 Z " fill="#A6A6AC" transform="translate(392,266)"/>
<path d="M0 0 C1.70840281 1.63412443 2.93453047 2.86906094 4 5 C4.66 4.34 5.32 3.68 6 3 C6.67493341 5.22667765 7.33963044 7.45645977 8 9.6875 C8.37125 10.92886719 8.7425 12.17023438 9.125 13.44921875 C9.87703457 16.5010019 10.19034899 18.88898362 10 22 C6.9150315 20.45751575 6.71567077 17.99180259 5.5625 14.8125 C4.29240509 11.32869736 3.00701244 8.01394237 1.33984375 4.69921875 C0 2 0 2 0 0 Z " fill="#A9A9B0" transform="translate(381,201)"/>
<path d="M0 0 C4.43458973 1.3937282 6.87378374 3.60582235 10 7 C6.04 7 2.08 7 -2 7 C-1.34 4.69 -0.68 2.38 0 0 Z " fill="#2C2C32" transform="translate(346,168)"/>
<path d="M0 0 C0.66 1.32 1.32 2.64 2 4 C1.34 4 0.68 4 0 4 C-0.33 4.99 -0.66 5.98 -1 7 C-2.98 6.34 -4.96 5.68 -7 5 C-7 4.34 -7 3.68 -7 3 C-9.31 2.67 -11.62 2.34 -14 2 C-14 1.67 -14 1.34 -14 1 C-9.32798795 -0.20568053 -4.78503708 -0.09382426 0 0 Z " fill="#94939C" transform="translate(322,125)"/>
<path d="M0 0 C10.21548751 -0.20430975 19.95726488 -0.2054634 30 2 C30 2.33 30 2.66 30 3 C24.555 2.505 24.555 2.505 19 2 C19 2.66 19 3.32 19 4 C18.01 4 17.02 4 16 4 C15.67 3.34 15.34 2.68 15 2 C12.45058627 1.68758629 9.99638487 1.48696579 7.4375 1.375 C6.72658203 1.33632812 6.01566406 1.29765625 5.28320312 1.2578125 C3.52257575 1.16328217 1.76132272 1.08054183 0 1 C0 0.67 0 0.34 0 0 Z " fill="#56565E" transform="translate(288,154)"/>
<path d="M0 0 C0.99 0.33 1.98 0.66 3 1 C1.77023437 1.90492188 1.77023437 1.90492188 0.515625 2.828125 C-0.57304557 3.63524283 -1.66158003 4.44254426 -2.75 5.25 C-3.55824219 5.84361328 -3.55824219 5.84361328 -4.3828125 6.44921875 C-6.84360758 8.27981021 -9.10957777 10.11108919 -11.265625 12.296875 C-13 14 -13 14 -15 14 C-15 13.34 -15 12.68 -15 12 C-14.34 12 -13.68 12 -13 12 C-13 11.34 -13 10.68 -13 10 C-10.93337 8.17511559 -8.87114455 6.48562191 -6.6875 4.8125 C-5.79514648 4.09803711 -5.79514648 4.09803711 -4.88476562 3.36914062 C-3.31911083 2.16035016 -1.66310303 1.07076497 0 0 Z " fill="#8A8997" transform="translate(311,186)"/>
<path d="M0 0 C0.99 0.66 1.98 1.32 3 2 C0.69 4.31 -1.62 6.62 -4 9 C-4.33 7.68 -4.66 6.36 -5 5 C-5.33 4.01 -5.66 3.02 -6 2 C-3.1875 0.875 -3.1875 0.875 0 0 Z " fill="#33333B" transform="translate(214,152)"/>
<path d="M0 0 C0.33 0.66 0.66 1.32 1 2 C-0.82153171 7.35814198 -3.82141635 11.28570342 -8 15 C-7.4520917 10.7170548 -5.97567196 8.14864359 -3.4375 4.6875 C-2.79683594 3.80449219 -2.15617187 2.92148438 -1.49609375 2.01171875 C-0.75552734 1.01591797 -0.75552734 1.01591797 0 0 Z " fill="#858492" transform="translate(291,205)"/>
<path d="M0 0 C2.66710654 0.15240609 4.4505871 0.49364919 6.4453125 2.33203125 C10 6.50625 10 6.50625 10 9 C6.55729549 7.46990911 3.81074178 5.5068778 1 3 C0.67 2.01 0.34 1.02 0 0 Z " fill="#86848E" transform="translate(353,154)"/>
<path d="M0 0 C0.66 0.33 1.32 0.66 2 1 C1.25234375 1.53109375 0.5046875 2.0621875 -0.265625 2.609375 C-1.25046875 3.31578125 -2.2353125 4.0221875 -3.25 4.75 C-4.22453125 5.44609375 -5.1990625 6.1421875 -6.203125 6.859375 C-8.69233296 8.76452299 -10.84971939 10.72684621 -13 13 C-13.66 12.67 -14.32 12.34 -15 12 C-5.42769857 1.85336049 -5.42769857 1.85336049 0 0 Z " fill="#BCBCC7" transform="translate(224,149)"/>
<path d="M0 0 C4.02073891 1.3982029 6.98689637 3.29179755 10.3125 5.9375 C11.19550781 6.62714844 12.07851563 7.31679687 12.98828125 8.02734375 C13.65214844 8.67832031 14.31601562 9.32929688 15 10 C15 10.99 15 11.98 15 13 C13.24775086 11.58611621 11.49829345 10.16877217 9.75 8.75 C8.77546875 7.96109375 7.8009375 7.1721875 6.796875 6.359375 C4.39752456 4.33534195 2.17588563 2.25877651 0 0 Z " fill="#C7C6D2" transform="translate(350,169)"/>
<path d="M0 0 C0.66 0 1.32 0 2 0 C2.53394179 1.4117783 3.05165104 2.82970244 3.5625 4.25 C3.85253906 5.03890625 4.14257812 5.8278125 4.44140625 6.640625 C5.04522837 9.19103452 4.8473932 10.55322229 4 13 C1.04952165 8.38987758 -0.5497272 5.63470383 0 0 Z " fill="#76757C" transform="translate(387,218)"/>
<path d="M0 0 C2.64 1.32 5.28 2.64 8 4 C8 4.33 8 4.66 8 5 C3.71 4.67 -0.58 4.34 -5 4 C-3.35 2.68 -1.7 1.36 0 0 Z " fill="#323136" transform="translate(313,121)"/>
<path d="M0 0 C2.33524782 2.25740623 4.18705073 4.2805761 6 7 C6 8.32 6 9.64 6 11 C5.34 11 4.68 11 4 11 C4 9.68 4 8.36 4 7 C3.34 7 2.68 7 2 7 C2 6.34 2 5.68 2 5 C1.34 5 0.68 5 0 5 C-0.33 4.01 -0.66 3.02 -1 2 C-0.67 1.34 -0.34 0.68 0 0 Z " fill="#87878F" transform="translate(369,171)"/>
<path d="M0 0 C0.66 0 1.32 0 2 0 C2 0.66 2 1.32 2 2 C4.49064888 2.68707555 6.37886292 3 9 3 C9.66 3.66 10.32 4.32 11 5 C10.34 5.66 9.68 6.32 9 7 C2.35384615 4.53846154 2.35384615 4.53846154 0.5625 1.8125 C0.376875 1.214375 0.19125 0.61625 0 0 Z " fill="#1A1A20" transform="translate(233,318)"/>
<path d="M0 0 C0 4.24645065 -1.81750806 6.38524772 -4 10 C-5.32 9.67 -6.64 9.34 -8 9 C-5.36 6.03 -2.72 3.06 0 0 Z " fill="#BFBECE" transform="translate(374,308)"/>
<path d="M0 0 C2.64752004 2.57784846 4.94432065 4.91648098 7 8 C6.01 8.495 6.01 8.495 5 9 C4.401875 8.38125 3.80375 7.7625 3.1875 7.125 C0.99188856 4.86323046 0.99188856 4.86323046 -2 3 C-2 2.34 -2 1.68 -2 1 C-1.34 0.67 -0.68 0.34 0 0 Z " fill="#A9A8B3" transform="translate(220,306)"/>
<path d="M0 0 C0.33 0.99 0.66 1.98 1 3 C0.34 3 -0.32 3 -1 3 C-1.33 3.99 -1.66 4.98 -2 6 C-3.875 7.25 -3.875 7.25 -6 8 C-6.99 7.67 -7.98 7.34 -9 7 C-6.03 4.69 -3.06 2.38 0 0 Z " fill="#2D2D35" transform="translate(245,170)"/>
<path d="M0 0 C1.26229508 4.47540984 1.26229508 4.47540984 0 7 C-1.98 4.69 -3.96 2.38 -6 0 C-2 -1 -2 -1 0 0 Z " fill="#323137" transform="translate(233,314)"/>
<path d="M0 0 C1.32 0 2.64 0 4 0 C4.33 0.99 4.66 1.98 5 3 C3.68 4.32 2.36 5.64 1 7 C-0.0625 5.1875 -0.0625 5.1875 -1 3 C-0.67 2.01 -0.34 1.02 0 0 Z " fill="#2B2B32" transform="translate(194,170)"/>
<path d="M0 0 C0 0.33 0 0.66 0 1 C-0.69867188 1.13277344 -1.39734375 1.26554687 -2.1171875 1.40234375 C-3.02726563 1.57894531 -3.93734375 1.75554687 -4.875 1.9375 C-5.77992188 2.11152344 -6.68484375 2.28554687 -7.6171875 2.46484375 C-9.99956317 2.89963701 -9.99956317 2.89963701 -12 4 C-14.00800456 3.71887936 -16.01014051 3.38932033 -18 3 C-18 2.67 -18 2.34 -18 2 C-11.88019467 0.59545452 -6.28260706 -0.23268915 0 0 Z " fill="#727275" transform="translate(236,107)"/>
<path d="M0 0 C1.32 0.33 2.64 0.66 4 1 C4.66 4.3 5.32 7.6 6 11 C5.34 11 4.68 11 4 11 C3.71125 9.9275 3.4225 8.855 3.125 7.75 C2.27179891 4.90599636 1.4363497 2.56491017 0 0 Z " fill="#92929F" transform="translate(361,165)"/>
<path d="M0 0 C0.66 0.33 1.32 0.66 2 1 C0.6875 3.5 0.6875 3.5 -1 6 C-1.99 6 -2.98 6 -4 6 C-4.33 5.01 -4.66 4.02 -5 3 C-2.625 1.4375 -2.625 1.4375 0 0 Z " fill="#323136" transform="translate(185,121)"/>
<path d="M0 0 C0.88492145 2.47778006 1.11637742 3.66056586 0.25 6.1875 C-1 8 -1 8 -4 9 C-2.94124926 5.59687262 -1.99097846 2.98646769 0 0 Z " fill="#A0A0AB" transform="translate(188,188)"/>
<path d="M0 0 C4.2742558 1.5830577 6.26531794 4.50568404 9 8 C8.67 8.66 8.34 9.32 8 10 C6.66370254 8.52351062 5.33103329 7.0437367 4 5.5625 C3.2575 4.73878906 2.515 3.91507813 1.75 3.06640625 C0 1 0 1 0 0 Z " fill="#C2C1CF" transform="translate(366,182)"/>
<path d="M0 0 C0.33 0 0.66 0 1 0 C0.67 2.97 0.34 5.94 0 9 C-0.99 9.33 -1.98 9.66 -3 10 C-1.125 2.25 -1.125 2.25 0 0 Z " fill="#6C6C73" transform="translate(390,269)"/>
<path d="M0 0 C0.66 1.32 1.32 2.64 2 4 C-0.6666419 5.33332095 -2.16680303 4.67102033 -5 4 C-4.67 3.01 -4.34 2.02 -4 1 C-1.9375 0.3125 -1.9375 0.3125 0 0 Z " fill="#191A20" transform="translate(271,336)"/>
<path d="M0 0 C0.33 0.66 0.66 1.32 1 2 C-0.2739589 4.03833424 -1.61061923 6.03852126 -3 8 C-3.66 8 -4.32 8 -5 8 C-3.375 2.25 -3.375 2.25 0 0 Z " fill="#9999A2" transform="translate(367,330)"/>
<path d="M0 0 C0.33 0.66 0.66 1.32 1 2 C0.22265625 3.9453125 0.22265625 3.9453125 -0.9375 6.125 C-1.31777344 6.84945313 -1.69804687 7.57390625 -2.08984375 8.3203125 C-2.39019531 8.87460937 -2.69054687 9.42890625 -3 10 C-4.26339822 6.20980534 -3.49719015 4.62477616 -2 1 C-1.34 0.67 -0.68 0.34 0 0 Z " fill="#757481" transform="translate(389,278)"/>
<path d="M0 0 C2.4375 1.125 2.4375 1.125 5 3 C5.8125 6.1875 5.8125 6.1875 6 9 C2.91910327 6.22719294 1.31224548 3.93673644 0 0 Z " fill="#B4B4BF" transform="translate(375,192)"/>
</svg>
