<?xml version="1.0" encoding="UTF-8"?>
<svg version="1.1" xmlns="http://www.w3.org/2000/svg" width="1200" height="1200">
<path d="M0 0 C1.29198807 -0.00101212 1.29198807 -0.00101212 2.6100769 -0.00204468 C75.82233677 0.08865583 139.7276041 31.89106446 191.625 82.25 C195.52617351 86.18375116 198.94325962 90.47586974 202.359375 94.83203125 C204.25073899 97.03269725 206.04636848 98.62898516 208.4375 100.25 C209.16453125 99.39019531 209.8915625 98.53039062 210.640625 97.64453125 C259.13011 40.52473287 319.85328946 8.2184448 394.88671875 0.78125 C398.4086828 0.50710793 401.90620167 0.34004419 405.4375 0.25 C406.1190918 0.22953613 406.80068359 0.20907227 407.50292969 0.18798828 C435.58485478 -0.56342988 463.51982786 3.28222802 490.4375 11.25 C491.15115723 11.45818359 491.86481445 11.66636719 492.60009766 11.88085938 C529.87630539 22.94710054 564.34999288 43.29058821 592.7421875 69.765625 C594.89587784 71.75076566 597.0798073 73.66650377 599.30078125 75.57421875 C603.35529057 79.1119209 607.08456054 82.87650343 610.75 86.8125 C611.40025146 87.50939941 612.05050293 88.20629883 612.72045898 88.92431641 C618.13659462 94.79729885 623.11243684 100.91889717 627.93652344 107.28125 C630.3285534 110.41874669 632.75941853 113.5258586 635.18530273 116.63720703 C637.94069593 120.17118522 640.68902716 123.71063885 643.4375 127.25 C644.11409668 127.11432617 644.79069336 126.97865234 645.48779297 126.83886719 C677.04530996 120.76695804 705.28181532 126.45343452 732.0625 144 C755.87483758 160.14051491 775.48277567 183.46114747 781.4375 212.25 C783.19848884 221.51527566 783.91844198 230.63873029 783.9375 240.0625 C783.93951416 240.77463654 783.94152832 241.48677307 783.94360352 242.2204895 C783.9031172 264.07803773 780.57518307 285.66454718 777.4375 307.25 C777.28756592 308.29403992 777.13763184 309.33807983 776.9831543 310.41375732 C764.07268878 400.30261304 743.10397273 489.85020061 659.4375 676.25 C658.97988281 677.01038574 658.52226563 677.77077148 658.05078125 678.55419922 C653.18728377 686.59206409 648.03481348 694.42087221 642.75 702.1875 C641.96580688 703.34149292 641.96580688 703.34149292 641.16577148 704.51879883 C627.25820284 724.7513696 610.36934074 744.17241328 590.95703125 759.27734375 C589.24766912 760.61568154 587.57842947 762.00657546 585.94921875 763.44140625 C548.28393815 796.52798414 499.01366058 818.11280352 449.4375 824.25 C448.73520264 824.3442627 448.03290527 824.43852539 447.30932617 824.53564453 C396.95059886 830.53852939 345.33978325 819.65278447 299.4375 799.25 C298.56544922 798.86553711 297.69339844 798.48107422 296.79492188 798.08496094 C280.92808413 791.03371374 266.47246579 782.43966821 252.97900391 771.49902344 C251.48923163 770.29191622 249.98506856 769.10263672 248.48046875 767.9140625 C234.70402455 756.70191151 221.91211839 743.79596101 210.4375 730.25 C208.58196088 732.24874164 206.7278725 734.24878822 204.875 736.25 C204.31925293 736.84941406 203.76350586 737.44882812 203.19091797 738.06640625 C200.41078688 741.07476311 197.68673706 744.10362791 195.0625 747.25 C152.30123785 796.28154338 81.70285503 823.46263747 18.2578125 827.9375 C-29.86867114 830.79617739 -77.05519527 821.20998666 -119.5625 798.25 C-120.53292236 797.73469727 -120.53292236 797.73469727 -121.52294922 797.20898438 C-140.67207461 787.00233727 -158.21818817 774.27369682 -174.11328125 759.515625 C-176.24637867 757.54242483 -178.41608987 755.63705297 -180.625 753.75 C-188.19582444 747.15655658 -195.07217969 739.8959467 -201.5625 732.25 C-202.75939453 730.88681641 -202.75939453 730.88681641 -203.98046875 729.49609375 C-216.3514418 715.31229033 -226.70202815 699.97020806 -236.13476562 683.70849609 C-237.50020986 681.3572609 -238.88066273 679.01555875 -240.265625 676.67578125 C-253.34162398 654.48388831 -265.038806 631.75730548 -275.5625 608.25 C-276.08666504 607.09113281 -276.61083008 605.93226563 -277.15087891 604.73828125 C-310.17341114 531.52191325 -331.78651092 453.2755681 -347.10540771 374.58636475 C-347.55002145 372.31378239 -348.00159528 370.0427024 -348.45556641 367.77197266 C-352.64141969 346.78038907 -355.90888018 325.69749355 -358.875 304.5 C-359.04612305 303.27734436 -359.21724609 302.05468872 -359.39355469 300.79498291 C-361.05372064 288.87016661 -362.65666501 276.95125208 -363.89518738 264.97465515 C-364.29311658 261.24671147 -364.83794514 257.62887528 -365.6640625 253.97265625 C-369.12530527 238.06385969 -367.70839652 219.63929554 -362.5625 204.25 C-362.16160156 203.02023437 -361.76070313 201.79046875 -361.34765625 200.5234375 C-356.09880537 186.07007999 -347.55831493 172.86926515 -337.5625 161.25 C-336.799375 160.239375 -336.03625 159.22875 -335.25 158.1875 C-316.44753545 137.63596898 -288.6439102 127.02023879 -261.19140625 125.34375 C-260.32386719 125.3128125 -259.45632813 125.281875 -258.5625 125.25 C-257.56089844 125.1984375 -256.55929687 125.146875 -255.52734375 125.09375 C-244.71271672 124.79018152 -234.21102971 126.53062675 -223.5625 128.25 C-223.34464844 127.59 -223.12679687 126.93 -222.90234375 126.25 C-221.10512697 122.22591113 -218.68016054 118.82802763 -216.125 115.25 C-215.59221436 114.50032959 -215.05942871 113.75065918 -214.51049805 112.97827148 C-209.54553275 106.07812232 -204.19017201 99.61432314 -198.5625 93.25 C-197.84964844 92.42628906 -197.13679687 91.60257812 -196.40234375 90.75390625 C-186.36893272 79.33269631 -175.60578173 68.54201479 -163.5625 59.25 C-162.5828125 58.46496094 -161.603125 57.67992187 -160.59375 56.87109375 C-123.36985189 27.25069764 -76.85385824 6.85360697 -29.5625 1.25 C-28.79107666 1.1557373 -28.01965332 1.06147461 -27.22485352 0.96435547 C-18.17228178 -0.0049746 -9.09420205 0.00641946 0 0 Z M-26.8203125 240.97265625 C-29.53216347 244.65558257 -32.07089119 248.41581339 -34.5625 252.25 C-35.12243652 253.10835449 -35.68237305 253.96670898 -36.25927734 254.85107422 C-45.80186847 269.57957712 -54.48076334 284.6762551 -62.5625 300.25 C-63.38645264 301.83216309 -63.38645264 301.83216309 -64.22705078 303.44628906 C-72.14777841 318.73625763 -79.31773478 334.2014156 -85.5625 350.25 C-86.00835449 351.3942041 -86.45420898 352.5384082 -86.91357422 353.71728516 C-92.1736977 367.3472096 -97.02228812 381.08228765 -101.20285034 395.08370972 C-101.60446815 396.42844685 -102.0105511 397.77185972 -102.42141724 399.11380005 C-102.99048973 400.98489107 -103.53476568 402.86346832 -104.078125 404.7421875 C-104.39040039 405.80808105 -104.70267578 406.87397461 -105.02441406 407.97216797 C-106.09036433 414.46556554 -104.42584285 420.30337886 -102.515625 426.4921875 C-102.30847366 427.16512848 -102.10132233 427.83806946 -101.88789368 428.53140259 C-101.20550069 430.73234101 -100.5105803 432.92898972 -99.8125 435.125 C-99.45102371 436.26932495 -99.45102371 436.26932495 -99.08224487 437.43676758 C-90.63164321 464.08571556 -80.27392434 489.87451595 -68.5625 515.25 C-67.8370063 516.84234165 -67.1117248 518.43478001 -66.38671875 520.02734375 C-61.83690661 529.93540111 -56.8180703 539.58094922 -51.6640625 549.18652344 C-50.72095093 550.95318545 -49.79610117 552.72957552 -48.875 554.5078125 C-43.22742899 565.28116807 -35.88681082 574.42713699 -27.5625 583.25 C-26.96566406 583.8996875 -26.36882812 584.549375 -25.75390625 585.21875 C-18.59670831 592.75612242 -9.09984817 599.68991997 1.5390625 600.48046875 C12.21517545 600.13648898 21.69933649 595.80905752 29.4453125 588.46484375 C42.53271806 573.91472816 49.84604552 556.07015904 56.6875 538 C57.00598907 537.16561401 57.32447815 536.33122803 57.65261841 535.47155762 C71.18429708 499.97832735 83.47234957 463.42688371 91.4375 426.25 C91.68491943 425.21391602 91.93233887 424.17783203 92.18725586 423.11035156 C92.54292054 417.6237468 91.18705513 412.90699967 89.7890625 407.625 C89.50142029 406.498022 89.21377808 405.37104401 88.91741943 404.20991516 C87.97955371 400.55289471 87.02203818 396.90138876 86.0625 393.25 C85.40791114 390.72692458 84.7537786 388.20373072 84.10009766 385.68041992 C79.52890255 368.1085958 74.88370622 350.57392983 69.4375 333.25 C69.21576111 332.54437927 68.99402222 331.83875854 68.76556396 331.11175537 C62.96820575 312.71712632 57.00540938 294.45790844 48.73681641 276.99804688 C47.82687026 275.0735159 46.93193679 273.14184809 46.04833984 271.20507812 C37.37294353 252.21608884 28.64330842 236.10781438 8.4375 228.25 C-5.25261634 224.28707159 -18.0338177 230.37717723 -26.8203125 240.97265625 Z M393.4375 238.5625 C392.839375 239.17988037 392.24125 239.79726074 391.625 240.43334961 C378.05919007 254.84884995 371.28097063 273.11648802 364.3125 291.3125 C363.98835114 292.15736969 363.66420227 293.00223938 363.33023071 293.87271118 C349.76512315 329.3281469 337.26468575 366.00421255 330.00610352 403.34545898 C329.69052376 404.95750379 329.36550958 406.56807521 329.00289917 408.17019653 C326.34699495 419.94596117 326.50384275 428.82044952 329.875 440.4375 C330.28825462 441.95946129 330.69897947 443.48211131 331.10742188 445.00537109 C332.24446638 449.19104106 333.43611235 453.35914509 334.6461792 457.52423096 C335.47260623 460.37092629 336.28979323 463.22017054 337.10595703 466.06982422 C351.34092341 515.9245854 351.34092341 515.9245854 373.4375 562.625 C374.00686279 563.61193848 374.57622559 564.59887695 375.1628418 565.61572266 C383.26955196 579.38314288 391.68103472 592.99784491 407.4375 598.25 C421.2528037 599.17338791 429.64229925 596.74976515 440.4375 588.25 C441.26378906 587.60160156 442.09007812 586.95320313 442.94140625 586.28515625 C464.44246826 568.21618865 475.94036026 538.19876955 487.4375 513.25 C487.73203064 512.61108826 488.02656128 511.97217651 488.33001709 511.31390381 C506.61109527 471.54079694 519.19047392 430.6272545 530.1875 388.3125 C530.35866333 387.65529968 530.52982666 386.99809937 530.70617676 386.32098389 C532.67807419 379.37212491 532.67807419 379.37212491 533.4375 372.25 C531.12009335 370.44007403 531.12009335 370.44007403 528.125 368.6875 C522.34460951 365.00532955 517.54752002 360.90080188 512.6171875 356.15625 C510.66919482 354.03056214 510.66919482 354.03056214 508.4375 354.25 C508.16035156 353.64800781 507.88320313 353.04601562 507.59765625 352.42578125 C506.41591362 349.99422211 506.41591362 349.99422211 503.875 347.4375 C492.30733216 334.10324717 485.52145779 316.41439035 478.02685547 300.64355469 C471.96113375 287.90844135 465.68382999 275.7283426 457.68663025 264.09272766 C455.90307051 261.46160503 454.20000024 258.78121405 452.49708557 256.09742737 C445.02375128 244.44234509 435.47902263 233.72887096 421.75390625 229.71875 C410.51836597 227.44511622 401.25438683 230.30342527 393.4375 238.5625 Z " fill="#2659D7" transform="translate(391.5625,185.75)"/>
<path d="M0 0 C33.40107211 -0.6330192 62.63236168 12.61606022 86.50390625 35.55859375 C98.91490904 48.41048474 105.90854487 65.12747022 110.75390625 82.12109375 C111.11226562 83.36761719 111.470625 84.61414063 111.83984375 85.8984375 C114.59781615 96.37361343 115.48232413 106.99013432 116.36633301 117.75030518 C120.32362636 165.66619215 130.52413448 213.11523341 141.37890625 259.87109375 C141.66813965 261.12043701 141.95737305 262.36978027 142.25537109 263.65698242 C143.76754197 270.12474831 145.37096846 276.54149992 147.21630859 282.92285156 C147.75390625 285.12109375 147.75390625 285.12109375 147.75390625 288.12109375 C148.41390625 288.12109375 149.07390625 288.12109375 149.75390625 288.12109375 C149.96893799 288.83724854 150.18396973 289.55340332 150.40551758 290.29125977 C164.36886158 336.57071347 181.54722748 381.75801131 204.74902344 424.26708984 C205.65784051 425.94385292 206.53956181 427.63523276 207.41796875 429.328125 C216.65482897 446.98682837 232.06889929 467.3345884 251.6640625 473.74609375 C262.60822675 475.7099064 271.69339327 471.59745898 280.70703125 465.8828125 C296.61145521 453.88017479 304.21017468 430.8152035 311.00390625 412.87109375 C311.32239532 412.03670776 311.6408844 411.20232178 311.96902466 410.34265137 C323.04423399 381.29267431 333.26738815 351.58178699 340.69140625 321.375 C340.85021774 320.72977386 341.00902924 320.08454773 341.1726532 319.41976929 C341.93651359 316.30140336 342.68330292 313.18012219 343.40942383 310.05273438 C343.67392334 308.94220703 343.93842285 307.83167969 344.2109375 306.6875 C344.55088745 305.2171228 344.55088745 305.2171228 344.89770508 303.71704102 C345.79462969 300.99762288 346.99818795 299.35172295 348.75390625 297.12109375 C348.95054367 297.92683334 349.14718109 298.73257294 349.34977722 299.56272888 C379.78902645 431.97621208 379.78902645 431.97621208 439.75390625 566.12109375 C440.21619629 566.84554687 440.67848633 567.57 441.15478516 568.31640625 C447.03981844 577.46522593 453.22404164 586.33376789 459.92138672 594.90844727 C462.46214255 598.19879959 464.45513437 601.11018059 465.75390625 605.12109375 C464.96886719 605.96671875 464.18382812 606.81234375 463.375 607.68359375 C462.31362814 608.82926596 461.2524431 609.97511126 460.19140625 611.12109375 C459.63565918 611.72050781 459.07991211 612.31992187 458.50732422 612.9375 C455.72719313 615.94585686 453.00314331 618.97472166 450.37890625 622.12109375 C407.6176441 671.15263713 337.01926128 698.33373122 273.57421875 702.80859375 C225.44773511 705.66727114 178.26121098 696.08108041 135.75390625 673.12109375 C134.78348389 672.60579102 134.78348389 672.60579102 133.79345703 672.08007812 C114.64433164 661.87343102 97.09821808 649.14479057 81.203125 634.38671875 C79.07002758 632.41351858 76.90031638 630.50814672 74.69140625 628.62109375 C67.12058181 622.02765033 60.24422656 614.76704045 53.75390625 607.12109375 C52.55701172 605.75791016 52.55701172 605.75791016 51.3359375 604.3671875 C38.96496445 590.18338408 28.6143781 574.84130181 19.18164062 558.57958984 C17.81619639 556.22835465 16.43574352 553.8866525 15.05078125 551.546875 C1.97478227 529.35498206 -9.72239975 506.62839923 -20.24609375 483.12109375 C-20.77025879 481.96222656 -21.29442383 480.80335938 -21.83447266 479.609375 C-54.85700489 406.393007 -76.47010467 328.14666185 -91.78900146 249.4574585 C-92.2336152 247.18487614 -92.68518903 244.91379615 -93.13916016 242.64306641 C-97.32501344 221.65148282 -100.59247393 200.5685873 -103.55859375 179.37109375 C-103.7297168 178.14843811 -103.90083984 176.92578247 -104.07714844 175.66607666 C-105.73731439 163.74126036 -107.34025876 151.82234583 -108.57878113 139.8457489 C-108.97671033 136.11780522 -109.52153889 132.49996903 -110.34765625 128.84375 C-113.80889902 112.93495344 -112.39199027 94.51038929 -107.24609375 79.12109375 C-106.84519531 77.89132812 -106.44429687 76.6615625 -106.03125 75.39453125 C-100.78239912 60.94117374 -92.24190868 47.7403589 -82.24609375 36.12109375 C-81.48296875 35.11046875 -80.71984375 34.09984375 -79.93359375 33.05859375 C-61.11248623 12.48668553 -33.35943501 1.94576169 -5.8984375 0.2109375 C-3.93216256 0.14433319 -1.96603516 0.07334187 0 0 Z " fill="#34B0DD" transform="translate(136.24609375,310.87890625)"/>
<path d="M0 0 C28.0819251 -0.75141816 56.01689817 3.09423974 82.93457031 11.06201172 C83.64822754 11.27019531 84.36188477 11.47837891 85.09716797 11.69287109 C122.3733757 22.75911226 156.84706319 43.10259993 185.23925781 69.57763672 C187.39294815 71.56277738 189.57687761 73.47851549 191.79785156 75.38623047 C195.85235867 78.92393068 199.58164961 82.68849931 203.24707031 86.62451172 C203.89659668 87.32068604 204.54612305 88.01686035 205.21533203 88.73413086 C210.65555762 94.6336311 215.66542073 100.77469195 220.49853516 107.17578125 C222.09890256 109.27786193 223.72796078 111.35580551 225.36035156 113.43310547 C226.53125802 114.93414743 227.70183585 116.43544581 228.87207031 117.93701172 C229.41621582 118.62657959 229.96036133 119.31614746 230.52099609 120.02661133 C233.52088928 123.91094449 235.88636401 127.7259387 237.98413086 132.15917969 C239.49672015 135.1874666 241.44070223 137.91729386 243.37207031 140.68701172 C263.51709409 170.3815953 283.15906738 204.70171594 293.93457031 239.06201172 C294.14049805 239.69929199 294.34642578 240.33657227 294.55859375 240.99316406 C300.7653648 260.94209882 300.10920933 284.90842254 294.93457031 305.06201172 C294.76828125 305.71121582 294.60199219 306.36041992 294.43066406 307.02929688 C287.68916892 332.06646078 268.4789556 358.90483145 246.43457031 372.24951172 C238.06400946 376.94031759 229.01504851 380.05148558 219.93457031 383.06201172 C218.92523437 383.40232422 217.91589844 383.74263672 216.87597656 384.09326172 C190.52756857 392.11408607 161.67142529 389.64349244 136.93457031 378.06201172 C134.75412668 376.80548488 132.68140421 375.51922222 130.64550781 374.04248047 C128.90791872 372.91791342 128.90791872 372.91791342 126.54785156 372.64404297 C115.95686001 370.28521226 105.19786335 357.72882103 97.93457031 350.06201172 C97.02707031 349.11326172 96.11957031 348.16451172 95.18457031 347.18701172 C83.86138571 333.64772322 77.02651159 316.24320166 69.52392578 300.45556641 C63.45958507 287.72335251 57.18568474 275.54213782 49.18884277 263.90988159 C47.38983907 261.25948078 45.66799167 258.56143867 43.9455719 255.8608551 C36.64869764 244.52838064 27.63058295 234.43993367 14.25097656 230.53076172 C10.07037037 229.68477058 6.16950243 229.62437962 1.93457031 230.06201172 C1.2165625 230.13548828 0.49855469 230.20896484 -0.24121094 230.28466797 C-10.9633034 232.61726212 -19.3380144 244.34056762 -25.00292969 253.06201172 C-32.42480035 264.86617977 -37.22368111 278.15537954 -42.19042969 291.12451172 C-42.51457855 291.96938141 -42.83872742 292.8142511 -43.17269897 293.6847229 C-57.16175101 330.24823212 -69.15823523 367.68019516 -77.06542969 406.06201172 C-77.22624023 406.83947754 -77.38705078 407.61694336 -77.55273438 408.41796875 C-78.41800204 412.62745133 -79.2567744 416.8412256 -80.06542969 421.06201172 C-83.23984266 418.50527466 -83.76894666 416.09318676 -84.58105469 412.17138672 C-84.82919922 411.00671875 -85.07734375 409.84205078 -85.33300781 408.64208984 C-85.57470703 407.46066406 -85.81640625 406.27923828 -86.06542969 405.06201172 C-86.51667085 402.96264758 -86.96974725 400.86367695 -87.42480469 398.76513672 C-87.64982666 397.71729004 -87.87484863 396.66944336 -88.10668945 395.58984375 C-90.54762105 384.30085042 -93.32537866 373.17903125 -96.52270508 362.08129883 C-98.67050203 354.59593702 -100.57688566 347.08232641 -102.29223633 339.48632812 C-103.65476417 333.52006061 -105.3093282 327.66350371 -107.01049805 321.78540039 C-108.60861813 316.14482428 -110.05496348 310.46730365 -111.50033569 304.78598022 C-114.36919934 293.51834363 -117.3197185 282.27987298 -120.49316406 271.09375 C-121.09434229 268.95936213 -121.6829184 266.82180775 -122.26855469 264.68310547 C-123.30316963 260.90517459 -124.35575247 257.13263942 -125.41943359 253.36279297 C-125.84826844 251.83545375 -126.27246618 250.30680457 -126.69189453 248.77685547 C-132.52354561 227.58389135 -140.85377726 207.1043061 -150.08837891 187.17626953 C-151.10574844 184.97476524 -152.10304912 182.76475214 -153.10058594 180.55419922 C-159.00412204 167.6283336 -165.88815856 155.31868412 -173.06542969 143.06201172 C-173.7733667 141.84916504 -173.7733667 141.84916504 -174.49560547 140.61181641 C-180.36626716 130.61370933 -186.70992991 121.05435132 -193.55932617 111.69604492 C-194.13110596 110.90286865 -194.70288574 110.10969238 -195.29199219 109.29248047 C-195.8032666 108.59533936 -196.31454102 107.89819824 -196.84130859 107.17993164 C-198.25233512 104.73863624 -198.83969026 102.87287725 -199.06542969 100.06201172 C-197.41843945 97.64194443 -195.85073216 95.68617935 -193.87792969 93.56201172 C-193.33056152 92.95107666 -192.78319336 92.3401416 -192.21923828 91.71069336 C-191.07510229 90.43890312 -189.92393417 89.17340692 -188.76611328 87.9140625 C-187.18812824 86.1956309 -185.63352079 84.45927749 -184.08496094 82.71435547 C-139.00507664 32.33453883 -75.80844424 5.51200853 -9.00292969 0.31201172 C-6.00184789 0.17122871 -3.00276721 0.090154 0 0 Z " fill="#2CC06E" transform="translate(799.0654296875,185.93798828125)"/>
</svg>
